<mxfile host="app.diagrams.net" modified="2022-10-17T10:24:22.329Z" agent="5.0 (Macintosh; Intel Mac OS X 10_15_7) AppleWebKit/537.36 (KHTML, like Gecko) Chrome/106.0.0.0 Safari/537.36" etag="QhST_J8vbBiB9pwzOVeR" version="19.0.1" type="github">
  <diagram id="ZE2GYtzgPHpkMf-dbCRP" name="Page-1">
    <mxGraphModel dx="1250" dy="825" grid="1" gridSize="10" guides="1" tooltips="1" connect="1" arrows="1" fold="1" page="1" pageScale="1" pageWidth="850" pageHeight="1100" math="0" shadow="0">
      <root>
        <mxCell id="0" />
        <mxCell id="1" parent="0" />
        <mxCell id="Vio0n_GjH35tRnFhGZ-u-3" value="Amazon Cloudfront" style="sketch=0;outlineConnect=0;fontColor=#232F3E;gradientColor=none;strokeColor=#ffffff;fillColor=#232F3E;dashed=0;verticalLabelPosition=middle;verticalAlign=bottom;align=center;html=1;whiteSpace=wrap;fontSize=10;fontStyle=1;spacing=3;shape=mxgraph.aws4.productIcon;prIcon=mxgraph.aws4.cloudfront;" vertex="1" parent="1">
          <mxGeometry x="180" y="410" width="80" height="110" as="geometry" />
        </mxCell>
        <mxCell id="Vio0n_GjH35tRnFhGZ-u-4" value="Amazon S3" style="sketch=0;outlineConnect=0;fontColor=#232F3E;gradientColor=none;strokeColor=#ffffff;fillColor=#232F3E;dashed=0;verticalLabelPosition=middle;verticalAlign=bottom;align=center;html=1;whiteSpace=wrap;fontSize=10;fontStyle=1;spacing=3;shape=mxgraph.aws4.productIcon;prIcon=mxgraph.aws4.s3;" vertex="1" parent="1">
          <mxGeometry x="370" y="480" width="80" height="100" as="geometry" />
        </mxCell>
        <mxCell id="Vio0n_GjH35tRnFhGZ-u-5" value="Amazon API Gateway" style="sketch=0;outlineConnect=0;fontColor=#232F3E;gradientColor=none;strokeColor=#ffffff;fillColor=#232F3E;dashed=0;verticalLabelPosition=middle;verticalAlign=bottom;align=center;html=1;whiteSpace=wrap;fontSize=10;fontStyle=1;spacing=3;shape=mxgraph.aws4.productIcon;prIcon=mxgraph.aws4.api_gateway;" vertex="1" parent="1">
          <mxGeometry x="370" y="320" width="80" height="110" as="geometry" />
        </mxCell>
        <mxCell id="Vio0n_GjH35tRnFhGZ-u-6" value="Amazon Route 53" style="sketch=0;outlineConnect=0;fontColor=#232F3E;gradientColor=none;strokeColor=#ffffff;fillColor=#232F3E;dashed=0;verticalLabelPosition=middle;verticalAlign=bottom;align=center;html=1;whiteSpace=wrap;fontSize=10;fontStyle=1;spacing=3;shape=mxgraph.aws4.productIcon;prIcon=mxgraph.aws4.route_53;" vertex="1" parent="1">
          <mxGeometry x="180" y="280" width="80" height="110" as="geometry" />
        </mxCell>
        <mxCell id="Vio0n_GjH35tRnFhGZ-u-7" value="AWS Certificate Manager" style="sketch=0;outlineConnect=0;fontColor=#232F3E;gradientColor=none;strokeColor=#ffffff;fillColor=#232F3E;dashed=0;verticalLabelPosition=middle;verticalAlign=bottom;align=center;html=1;whiteSpace=wrap;fontSize=10;fontStyle=1;spacing=3;shape=mxgraph.aws4.productIcon;prIcon=mxgraph.aws4.certificate_manager_3;" vertex="1" parent="1">
          <mxGeometry x="180" y="540" width="80" height="110" as="geometry" />
        </mxCell>
        <mxCell id="Vio0n_GjH35tRnFhGZ-u-8" value="AWS Lambda" style="sketch=0;outlineConnect=0;fontColor=#232F3E;gradientColor=none;strokeColor=#ffffff;fillColor=#232F3E;dashed=0;verticalLabelPosition=middle;verticalAlign=bottom;align=center;html=1;whiteSpace=wrap;fontSize=10;fontStyle=1;spacing=3;shape=mxgraph.aws4.productIcon;prIcon=mxgraph.aws4.lambda;" vertex="1" parent="1">
          <mxGeometry x="550" y="320" width="80" height="100" as="geometry" />
        </mxCell>
        <mxCell id="Vio0n_GjH35tRnFhGZ-u-10" value="Amazon DynamoDB" style="sketch=0;outlineConnect=0;fontColor=#232F3E;gradientColor=none;strokeColor=#ffffff;fillColor=#232F3E;dashed=0;verticalLabelPosition=middle;verticalAlign=bottom;align=center;html=1;whiteSpace=wrap;fontSize=10;fontStyle=1;spacing=3;shape=mxgraph.aws4.productIcon;prIcon=mxgraph.aws4.dynamodb;" vertex="1" parent="1">
          <mxGeometry x="550" y="170" width="80" height="110" as="geometry" />
        </mxCell>
        <mxCell id="Vio0n_GjH35tRnFhGZ-u-19" value="" style="edgeStyle=orthogonalEdgeStyle;rounded=0;orthogonalLoop=1;jettySize=auto;html=1;" edge="1" parent="1" source="Vio0n_GjH35tRnFhGZ-u-11" target="Vio0n_GjH35tRnFhGZ-u-3">
          <mxGeometry relative="1" as="geometry" />
        </mxCell>
        <mxCell id="Vio0n_GjH35tRnFhGZ-u-11" value="" style="shape=image;verticalLabelPosition=bottom;labelBackgroundColor=default;verticalAlign=top;aspect=fixed;imageAspect=0;image=https://www.computerhope.com/jargon/u/user.jpg;" vertex="1" parent="1">
          <mxGeometry y="370" width="115.98" height="150" as="geometry" />
        </mxCell>
        <mxCell id="Vio0n_GjH35tRnFhGZ-u-12" value="" style="endArrow=classic;html=1;rounded=0;" edge="1" parent="1" target="Vio0n_GjH35tRnFhGZ-u-5">
          <mxGeometry width="50" height="50" relative="1" as="geometry">
            <mxPoint x="270" y="450" as="sourcePoint" />
            <mxPoint x="320" y="400" as="targetPoint" />
          </mxGeometry>
        </mxCell>
        <mxCell id="Vio0n_GjH35tRnFhGZ-u-13" value="" style="endArrow=classic;html=1;rounded=0;" edge="1" parent="1" target="Vio0n_GjH35tRnFhGZ-u-4">
          <mxGeometry width="50" height="50" relative="1" as="geometry">
            <mxPoint x="270" y="450" as="sourcePoint" />
            <mxPoint x="380" y="406.42857142857133" as="targetPoint" />
          </mxGeometry>
        </mxCell>
        <mxCell id="Vio0n_GjH35tRnFhGZ-u-14" value="" style="endArrow=classic;html=1;rounded=0;" edge="1" parent="1">
          <mxGeometry width="50" height="50" relative="1" as="geometry">
            <mxPoint x="460" y="360" as="sourcePoint" />
            <mxPoint x="540" y="360" as="targetPoint" />
          </mxGeometry>
        </mxCell>
        <mxCell id="Vio0n_GjH35tRnFhGZ-u-17" value="" style="endArrow=classic;html=1;rounded=0;" edge="1" parent="1" source="Vio0n_GjH35tRnFhGZ-u-8" target="Vio0n_GjH35tRnFhGZ-u-10">
          <mxGeometry width="50" height="50" relative="1" as="geometry">
            <mxPoint x="580" y="320" as="sourcePoint" />
            <mxPoint x="630" y="270" as="targetPoint" />
          </mxGeometry>
        </mxCell>
      </root>
    </mxGraphModel>
  </diagram>
</mxfile>
